<svg width="54" height="58" viewBox="0 0 54 58" fill="none" xmlns="http://www.w3.org/2000/svg">
<path d="M26.6134 35.5923C26.3469 35.0633 26.3339 34.5413 26.2568 33.82C26.2521 33.7819 26.2307 33.7612 26.1926 33.7579C24.939 33.653 23.8076 33.2413 22.7984 32.5226C22.4477 32.2721 22.0219 31.8744 21.6212 31.5658C20.8431 30.9647 20.0696 30.3435 19.3009 29.7024C18.0235 28.6364 16.8694 27.1807 16.0448 25.6178C15.4227 24.4366 14.9708 23.4167 14.6112 22.1183C14.1904 20.6002 13.9503 19.6544 13.8908 19.281C13.768 18.5156 13.6417 17.8207 13.5121 17.1962C13.5107 17.1891 13.5075 17.1826 13.5028 17.1772C13.4981 17.1718 13.492 17.1677 13.4852 17.1654C13.4784 17.1631 13.4711 17.1625 13.4641 17.1639C13.457 17.1653 13.4505 17.1685 13.445 17.1731C13.3422 17.2593 13.2256 17.3084 13.0954 17.3204C11.1711 17.5014 9.76153 16.8061 8.86654 15.2346C8.24605 14.1445 8.10212 12.9326 8.43474 11.5988C8.49618 11.3524 8.63811 10.9757 8.86053 10.4687C9.294 9.48223 9.92116 8.50007 10.742 7.52226C13.4644 4.27892 16.7902 2.02708 20.7195 0.766746C22.6771 0.138248 24.6832 -0.103867 26.7376 0.0403998C28.4548 0.16129 30.0985 0.42411 31.6688 0.82886C34.2055 1.48207 36.6811 2.62419 38.236 4.74311C39.1947 6.04853 39.3931 7.72564 38.6016 9.15829C38.2537 9.78813 37.7798 10.3328 37.18 10.7923C37.1672 10.8024 37.1574 10.8157 37.1516 10.8309C37.1458 10.846 37.1442 10.8625 37.1469 10.8785C37.4735 12.6558 37.7511 13.8871 37.8322 15.3207C37.9574 17.5338 38.0606 19.7459 37.705 21.96C37.1479 25.4354 35.2835 28.7596 32.4322 30.8866C32.0645 31.1601 31.7519 31.674 31.4734 31.9656C30.9565 32.5076 29.9746 33.0255 29.2693 33.2589C28.7858 33.4186 28.2922 33.5532 27.7886 33.6627C27.77 33.6666 27.7534 33.677 27.7415 33.6919C27.7296 33.7069 27.7232 33.7256 27.7235 33.7448C27.7368 34.4061 27.6136 35.0199 27.3538 35.5863C27.3324 35.6337 27.3474 35.6537 27.3989 35.6464C28.1933 35.5292 29.1311 36.2735 29.7262 36.7404C30.0368 36.9849 30.8563 36.3867 31.1578 36.1473C32.884 34.7718 34.2095 32.9614 34.8306 30.8254C34.8387 30.7967 34.8577 30.7824 34.8877 30.7824H36.2553C36.3174 30.7824 36.3508 30.8131 36.3555 30.8745C36.6173 34.4071 36.8157 37.9567 36.9506 41.5233C36.9507 41.5269 36.9501 41.5305 36.9488 41.5339C36.9475 41.5373 36.9455 41.5404 36.943 41.543C36.9405 41.5457 36.9375 41.5477 36.9341 41.5492C36.9308 41.5506 36.9272 41.5513 36.9235 41.5513H17.4224C17.4068 41.5513 17.3913 41.5482 17.377 41.5421C17.3626 41.536 17.3496 41.5271 17.3388 41.5159C17.3279 41.5046 17.3194 41.4914 17.3138 41.4768C17.3082 41.4622 17.3056 41.4467 17.3062 41.4311L17.6438 30.9948C17.6451 30.9614 17.6622 30.9453 17.6949 30.9467L18.4493 30.9707C18.4635 30.9713 18.4771 30.9758 18.4886 30.9836C18.5001 30.9914 18.5091 31.0022 18.5144 31.0148C19.4872 33.281 21.2375 35.5512 23.4576 36.6993C23.6706 36.8089 23.8874 36.8716 24.1078 36.8877C24.1899 36.893 24.2624 36.8696 24.3252 36.8175C25.0375 36.2214 25.5995 35.8828 26.5894 35.6434C26.6194 35.6367 26.6274 35.6197 26.6134 35.5923ZM26.5884 9.84958C27.3297 10.0072 27.9716 10.1151 28.5139 10.1732C29.5979 10.2887 30.6529 10.2507 31.6788 10.059C32.9081 9.82954 33.8759 9.31759 34.6754 8.41091C35.567 7.39803 35.7383 5.83514 34.9649 4.70705C34.5321 4.07588 33.954 3.58397 33.2307 3.23132C31.269 2.27554 29.1231 1.78463 26.918 1.78363C25.5167 1.78296 24.3195 1.86979 23.3263 2.04411C21.0461 2.44352 18.9292 3.26972 16.9756 4.5227C14.9147 5.84515 13.1214 7.38902 11.6256 9.34264C11.2059 9.89166 10.8482 10.5098 10.5497 11.158C10.2331 11.8473 10.1058 12.5549 10.1679 13.2809C10.2601 14.3519 10.9213 15.458 11.9472 15.7726C13.2022 16.1579 14.4278 15.9359 15.6241 15.1063C15.9821 14.8579 16.33 14.6007 16.668 14.3349C16.9535 14.1105 17.2411 14.0033 17.5917 14.0644C20.4821 14.5693 23.3003 13.6466 25.2419 11.4495C25.6453 10.9927 26.0287 10.4864 26.392 9.93073C26.4127 9.89891 26.4425 9.87411 26.4776 9.85962C26.5126 9.84513 26.5513 9.84163 26.5884 9.84958ZM36.118 12.5225C36.1174 12.519 36.1161 12.5156 36.1142 12.5126C36.1122 12.5095 36.1096 12.507 36.1066 12.505C36.1036 12.503 36.1002 12.5017 36.0967 12.5011C36.0931 12.5005 36.0895 12.5006 36.086 12.5015C35.1876 12.7112 34.0996 12.984 32.8219 13.32C31.0306 13.7909 28.9147 14.2698 27.6033 14.6585C24.8121 15.486 22.6521 16.2995 19.6505 17.4426C18.2609 17.9716 16.9385 18.3864 15.4838 18.8723C15.4392 18.8871 15.4013 18.9173 15.3767 18.9576C15.3521 18.9979 15.3425 19.0458 15.3495 19.0927L15.6321 21.0022C15.6401 21.0523 15.6685 21.071 15.7172 21.0583C20.5034 19.8768 25.3611 18.6369 30.2902 17.3385C33.8702 16.3954 35.949 15.8497 36.5268 15.7014C36.5675 15.6914 36.5849 15.6657 36.5789 15.6243L36.118 12.5225ZM16.2582 22.6393C16.4366 23.1455 16.5962 23.5416 16.7371 23.8275C17.741 25.8723 19.2007 27.7678 21.1102 29.1984C22.8374 30.4928 24.7607 31.153 26.8799 31.1791C27.9669 31.1931 28.8976 30.9837 29.8564 30.5379C33.6785 28.7606 35.9167 25.0788 36.4326 20.9111C36.5675 19.8244 36.6357 18.6141 36.637 17.2803C36.637 17.257 36.6256 17.2483 36.6029 17.2543C34.8009 17.7686 33.0306 18.2588 31.2921 18.725C31.1278 18.7691 28.3182 19.4794 22.8635 20.856C20.8344 21.3683 18.8053 21.8815 16.7762 22.3958C16.5985 22.4412 16.4389 22.4933 16.2973 22.5521C16.2566 22.5695 16.2435 22.5985 16.2582 22.6393ZM27.6171 39.4977C27.7967 39.4284 27.9603 39.323 28.0987 39.1877C28.2371 39.0523 28.3475 38.8895 28.4236 38.7087C28.4997 38.5279 28.54 38.3325 28.5423 38.1337C28.5445 37.9349 28.5087 37.7367 28.4367 37.5502C28.3648 37.3638 28.2582 37.1928 28.123 37.0471C27.9878 36.9013 27.8267 36.7837 27.6488 36.7008C27.4709 36.618 27.2798 36.5716 27.0864 36.5642C26.893 36.5569 26.701 36.5888 26.5214 36.6581C26.3418 36.7274 26.1782 36.8327 26.0398 36.9681C25.9014 37.1035 25.791 37.2662 25.7149 37.447C25.6388 37.6279 25.5985 37.8233 25.5963 38.022C25.594 38.2208 25.6299 38.4191 25.7018 38.6055C25.7738 38.792 25.8804 38.963 26.0156 39.1087C26.1508 39.2544 26.3119 39.3721 26.4897 39.4549C26.6676 39.5378 26.8587 39.5842 27.0521 39.5915C27.2456 39.5989 27.4375 39.567 27.6171 39.4977Z" fill="#393939"/>
<path d="M26.5882 9.85013C26.5511 9.84218 26.5125 9.84569 26.4774 9.86018C26.4424 9.87467 26.4125 9.89946 26.3919 9.93128C26.0285 10.487 25.6452 10.9932 25.2417 11.4501C23.3001 13.6472 20.4819 14.5699 17.5916 14.0649C17.2409 14.0038 16.9534 14.111 16.6679 14.3354C16.3299 14.6013 15.9819 14.8584 15.6239 15.1069C14.4277 15.9364 13.2021 16.1585 11.9471 15.7731C10.9212 15.4585 10.26 14.3525 10.1678 13.2815C10.1057 12.5555 10.2329 11.8478 10.5495 11.1586C10.8481 10.5104 11.2057 9.89221 11.6255 9.34319C13.1213 7.38957 14.9146 5.84571 16.9754 4.52326C18.929 3.27027 21.046 2.44407 23.3262 2.04466C24.3194 1.87034 25.5166 1.78352 26.9178 1.78418C29.1229 1.78519 31.2689 2.2761 33.2305 3.23187C33.9539 3.58452 34.5319 4.07643 34.9648 4.7076C35.7382 5.83569 35.5669 7.39858 34.6752 8.41146C33.8757 9.31814 32.9079 9.83009 31.6787 10.0595C30.6528 10.2512 29.5978 10.2893 28.5138 10.1737C27.9715 10.1156 27.3296 10.0078 26.5882 9.85013Z" fill="white"/>
<path d="M1.72721 36.3731C2.79419 33.7502 5.37096 31.9218 8.07698 31.2746C9.46288 30.9433 10.943 30.7767 12.5172 30.7747C14.5516 30.7727 15.833 30.7693 16.3613 30.7647C16.3705 30.7645 16.3796 30.7662 16.388 30.7697C16.3965 30.7732 16.4042 30.7784 16.4105 30.785C16.4169 30.7916 16.4219 30.7994 16.4251 30.8079C16.4284 30.8165 16.4299 30.8256 16.4295 30.8348L15.8634 41.4875C15.8626 41.5047 15.8553 41.521 15.8428 41.5331C15.8304 41.5452 15.8138 41.5522 15.7963 41.5526C13.2666 41.5997 10.6818 41.6098 8.13909 41.3322C5.78206 41.0758 3.40098 40.7057 0.995856 40.2222C0.96426 40.2158 0.936242 40.1978 0.91746 40.1718C0.898679 40.1457 0.890533 40.1136 0.894668 40.0819C1.05897 38.8306 1.26035 37.5212 1.72721 36.3731Z" fill="#393939"/>
<path d="M38.1136 40.0987C37.9366 38.105 37.7864 36.0398 37.6628 33.9032C37.6037 32.8653 37.4895 31.8394 37.3953 30.8345C37.3946 30.8268 37.3955 30.819 37.3981 30.8117C37.4006 30.8043 37.4046 30.7976 37.4099 30.7919C37.4152 30.7862 37.4216 30.7817 37.4288 30.7787C37.4359 30.7757 37.4437 30.7743 37.4514 30.7744C38.846 30.7891 40.2767 30.7948 41.7434 30.7915C43.3273 30.7885 44.8211 30.8736 46.415 31.2233C47.8437 31.5365 49.1591 32.149 50.3613 33.0607C51.9236 34.2455 52.9782 35.778 53.5252 37.6582C53.6902 38.2266 53.8481 39.026 53.9991 40.0566C54.0038 40.09 53.9914 40.1154 53.962 40.1328C53.8698 40.1849 53.6815 40.1658 53.5993 40.1809C52.4178 40.4046 51.4043 40.594 50.5587 40.7489C50.0838 40.8357 48.8919 40.9934 46.9831 41.2218C44.1518 41.5614 41.2545 41.6105 38.3621 41.5394C38.319 41.5384 38.2778 41.521 38.247 41.4907C38.2161 41.4604 38.1978 41.4194 38.1958 41.3761C38.1784 40.9513 38.151 40.5255 38.1136 40.0987Z" fill="#393939"/>
<path d="M5.56338 53.5781C5.31538 53.5781 5.12338 53.5101 4.98738 53.3741C4.85138 53.2301 4.78338 53.0341 4.78338 52.7861V45.8621C4.78338 45.6061 4.84738 45.4141 4.97538 45.2861C5.11138 45.1501 5.30338 45.0821 5.55138 45.0821C5.79938 45.0821 5.98738 45.1501 6.11538 45.2861C6.25138 45.4141 6.31938 45.6061 6.31938 45.8621V52.2701H9.79938C10.0154 52.2701 10.1794 52.3261 10.2914 52.4381C10.4114 52.5501 10.4714 52.7101 10.4714 52.9181C10.4714 53.1261 10.4114 53.2901 10.2914 53.4101C10.1794 53.5221 10.0154 53.5781 9.79938 53.5781H5.56338ZM14.2111 53.6981C13.5471 53.6981 12.9751 53.5741 12.4951 53.3261C12.0151 53.0781 11.6431 52.7261 11.3791 52.2701C11.1231 51.8141 10.9951 51.2741 10.9951 50.6501C10.9951 50.0421 11.1191 49.5101 11.3671 49.0541C11.6231 48.5981 11.9711 48.2421 12.4111 47.9861C12.8591 47.7221 13.3671 47.5901 13.9351 47.5901C14.3511 47.5901 14.7231 47.6581 15.0511 47.7941C15.3871 47.9301 15.6711 48.1261 15.9031 48.3821C16.1431 48.6381 16.3231 48.9501 16.4431 49.3181C16.5711 49.6781 16.6351 50.0861 16.6351 50.5421C16.6351 50.6861 16.5831 50.7981 16.4791 50.8781C16.3831 50.9501 16.2431 50.9861 16.0591 50.9861H12.2071V50.1221H15.5791L15.3871 50.3021C15.3871 49.9341 15.3311 49.6261 15.2191 49.3781C15.1151 49.1301 14.9591 48.9421 14.7511 48.8141C14.5511 48.6781 14.2991 48.6101 13.9951 48.6101C13.6591 48.6101 13.3711 48.6901 13.1311 48.8501C12.8991 49.0021 12.7191 49.2221 12.5911 49.5101C12.4711 49.7901 12.4111 50.1261 12.4111 50.5181V50.6021C12.4111 51.2581 12.5631 51.7501 12.8671 52.0781C13.1791 52.3981 13.6351 52.5581 14.2351 52.5581C14.4431 52.5581 14.6751 52.5341 14.9311 52.4861C15.1951 52.4301 15.4431 52.3381 15.6751 52.2101C15.8431 52.1141 15.9911 52.0741 16.1191 52.0901C16.2471 52.0981 16.3471 52.1421 16.4191 52.2221C16.4991 52.3021 16.5471 52.4021 16.5631 52.5221C16.5791 52.6341 16.5551 52.7501 16.4911 52.8701C16.4351 52.9901 16.3351 53.0941 16.1911 53.1821C15.9111 53.3581 15.5871 53.4901 15.2191 53.5781C14.8591 53.6581 14.5231 53.6981 14.2111 53.6981ZM22.0168 53.6741C21.7688 53.6741 21.5728 53.6061 21.4288 53.4701C21.2928 53.3261 21.2248 53.1221 21.2248 52.8581V45.9341C21.2248 45.6701 21.2928 45.4701 21.4288 45.3341C21.5728 45.1901 21.7768 45.1181 22.0408 45.1181H26.2288C26.4368 45.1181 26.5928 45.1701 26.6968 45.2741C26.8008 45.3781 26.8528 45.5261 26.8528 45.7181C26.8528 45.9181 26.8008 46.0741 26.6968 46.1861C26.5928 46.2901 26.4368 46.3421 26.2288 46.3421H22.7608V48.7301H25.9768C26.1768 48.7301 26.3288 48.7821 26.4328 48.8861C26.5448 48.9901 26.6008 49.1381 26.6008 49.3301C26.6008 49.5301 26.5448 49.6861 26.4328 49.7981C26.3288 49.9021 26.1768 49.9541 25.9768 49.9541H22.7608V52.8581C22.7608 53.4021 22.5128 53.6741 22.0168 53.6741ZM28.4699 53.6741C28.2219 53.6741 28.0299 53.6101 27.8939 53.4821C27.7659 53.3461 27.7019 53.1541 27.7019 52.9061V48.3701C27.7019 48.1221 27.7659 47.9341 27.8939 47.8061C28.0219 47.6781 28.2019 47.6141 28.4339 47.6141C28.6659 47.6141 28.8459 47.6781 28.9739 47.8061C29.1019 47.9341 29.1659 48.1221 29.1659 48.3701V49.1261H29.0459C29.1579 48.6461 29.3779 48.2821 29.7059 48.0341C30.0339 47.7861 30.4699 47.6381 31.0139 47.5901C31.1819 47.5741 31.3139 47.6181 31.4099 47.7221C31.5139 47.8181 31.5739 47.9701 31.5899 48.1781C31.6059 48.3781 31.5579 48.5421 31.4459 48.6701C31.3419 48.7901 31.1819 48.8621 30.9659 48.8861L30.7019 48.9101C30.2139 48.9581 29.8459 49.1101 29.5979 49.3661C29.3499 49.6141 29.2259 49.9661 29.2259 50.4221V52.9061C29.2259 53.1541 29.1619 53.3461 29.0339 53.4821C28.9059 53.6101 28.7179 53.6741 28.4699 53.6741ZM35.1993 53.6981C34.5353 53.6981 33.9633 53.5741 33.4833 53.3261C33.0033 53.0781 32.6313 52.7261 32.3673 52.2701C32.1113 51.8141 31.9833 51.2741 31.9833 50.6501C31.9833 50.0421 32.1073 49.5101 32.3553 49.0541C32.6113 48.5981 32.9593 48.2421 33.3993 47.9861C33.8473 47.7221 34.3553 47.5901 34.9233 47.5901C35.3393 47.5901 35.7113 47.6581 36.0393 47.7941C36.3753 47.9301 36.6593 48.1261 36.8913 48.3821C37.1313 48.6381 37.3113 48.9501 37.4313 49.3181C37.5593 49.6781 37.6233 50.0861 37.6233 50.5421C37.6233 50.6861 37.5713 50.7981 37.4673 50.8781C37.3713 50.9501 37.2313 50.9861 37.0473 50.9861H33.1953V50.1221H36.5673L36.3753 50.3021C36.3753 49.9341 36.3193 49.6261 36.2073 49.3781C36.1033 49.1301 35.9473 48.9421 35.7393 48.8141C35.5393 48.6781 35.2873 48.6101 34.9833 48.6101C34.6473 48.6101 34.3593 48.6901 34.1193 48.8501C33.8873 49.0021 33.7073 49.2221 33.5793 49.5101C33.4593 49.7901 33.3993 50.1261 33.3993 50.5181V50.6021C33.3993 51.2581 33.5513 51.7501 33.8553 52.0781C34.1673 52.3981 34.6233 52.5581 35.2233 52.5581C35.4313 52.5581 35.6633 52.5341 35.9193 52.4861C36.1833 52.4301 36.4313 52.3381 36.6633 52.2101C36.8313 52.1141 36.9793 52.0741 37.1073 52.0901C37.2353 52.0981 37.3353 52.1421 37.4073 52.2221C37.4873 52.3021 37.5353 52.4021 37.5513 52.5221C37.5673 52.6341 37.5433 52.7501 37.4793 52.8701C37.4233 52.9901 37.3233 53.0941 37.1793 53.1821C36.8993 53.3581 36.5753 53.4901 36.2073 53.5781C35.8473 53.6581 35.5113 53.6981 35.1993 53.6981ZM41.0673 53.6981C40.5553 53.6981 40.1033 53.5741 39.7113 53.3261C39.3273 53.0781 39.0273 52.7261 38.8113 52.2701C38.5953 51.8061 38.4873 51.2621 38.4873 50.6381C38.4873 50.0061 38.5953 49.4661 38.8113 49.0181C39.0273 48.5621 39.3273 48.2101 39.7113 47.9621C40.1033 47.7141 40.5553 47.5901 41.0673 47.5901C41.5553 47.5901 41.9793 47.7101 42.3393 47.9501C42.7073 48.1901 42.9553 48.5061 43.0833 48.8981H42.9513V45.7781C42.9513 45.5301 43.0153 45.3421 43.1433 45.2141C43.2713 45.0861 43.4553 45.0221 43.6953 45.0221C43.9353 45.0221 44.1193 45.0861 44.2473 45.2141C44.3833 45.3421 44.4513 45.5301 44.4513 45.7781V52.9061C44.4513 53.1541 44.3873 53.3461 44.2593 53.4821C44.1313 53.6101 43.9473 53.6741 43.7073 53.6741C43.4673 53.6741 43.2833 53.6101 43.1553 53.4821C43.0273 53.3461 42.9633 53.1541 42.9633 52.9061V51.9701L43.0953 52.3301C42.9753 52.7461 42.7313 53.0781 42.3633 53.3261C41.9953 53.5741 41.5633 53.6981 41.0673 53.6981ZM41.4873 52.5581C41.7833 52.5581 42.0433 52.4861 42.2673 52.3421C42.4913 52.1981 42.6633 51.9861 42.7833 51.7061C42.9113 51.4181 42.9753 51.0621 42.9753 50.6381C42.9753 49.9981 42.8393 49.5221 42.5673 49.2101C42.2953 48.8901 41.9353 48.7301 41.4873 48.7301C41.1913 48.7301 40.9313 48.8021 40.7073 48.9461C40.4833 49.0821 40.3073 49.2941 40.1793 49.5821C40.0593 49.8621 39.9993 50.2141 39.9993 50.6381C39.9993 51.2701 40.1353 51.7501 40.4073 52.0781C40.6793 52.3981 41.0393 52.5581 41.4873 52.5581ZM48.6826 53.6981C48.0746 53.6981 47.5466 53.5741 47.0986 53.3261C46.6506 53.0781 46.3026 52.7261 46.0546 52.2701C45.8066 51.8061 45.6826 51.2621 45.6826 50.6381C45.6826 50.1661 45.7506 49.7461 45.8866 49.3781C46.0306 49.0021 46.2346 48.6821 46.4986 48.4181C46.7626 48.1461 47.0786 47.9421 47.4466 47.8061C47.8146 47.6621 48.2266 47.5901 48.6826 47.5901C49.2906 47.5901 49.8186 47.7141 50.2666 47.9621C50.7146 48.2101 51.0626 48.5621 51.3106 49.0181C51.5586 49.4741 51.6826 50.0141 51.6826 50.6381C51.6826 51.1101 51.6106 51.5341 51.4666 51.9101C51.3306 52.2861 51.1306 52.6101 50.8666 52.8821C50.6026 53.1461 50.2866 53.3501 49.9186 53.4941C49.5506 53.6301 49.1386 53.6981 48.6826 53.6981ZM48.6826 52.5581C48.9786 52.5581 49.2386 52.4861 49.4626 52.3421C49.6866 52.1981 49.8586 51.9861 49.9786 51.7061C50.1066 51.4181 50.1706 51.0621 50.1706 50.6381C50.1706 49.9981 50.0346 49.5221 49.7626 49.2101C49.4906 48.8901 49.1306 48.7301 48.6826 48.7301C48.3866 48.7301 48.1266 48.8021 47.9026 48.9461C47.6786 49.0821 47.5026 49.2941 47.3746 49.5821C47.2546 49.8621 47.1946 50.2141 47.1946 50.6381C47.1946 51.2701 47.3306 51.7501 47.6026 52.0781C47.8746 52.3981 48.2346 52.5581 48.6826 52.5581Z" fill="#393939"/>
</svg>
