<svg width="24" height="18" viewBox="0 0 24 18" fill="none" xmlns="http://www.w3.org/2000/svg">
<path d="M11.2715 0.368195C11.0139 0.522029 10.87 0.737396 10.87 0.952763C10.87 1.06814 10.8927 1.06045 11.0518 0.914305C11.4305 0.552796 12.438 0.560487 12.8167 0.921996C12.9833 1.08352 12.9909 1.08352 12.9909 0.93738C12.9909 0.729704 12.794 0.468187 12.5364 0.329737C12.2183 0.16052 11.5669 0.183595 11.2715 0.368195Z" fill="#FE7A7C"/>
<path d="M9.88537 1.45271C9.12791 1.55271 8.26442 1.73731 7.58271 1.96036C4.86346 2.82183 2.81077 4.82936 2.15179 7.25224C1.98515 7.86757 1.99272 8.15217 2.15179 7.58298C2.47749 6.48307 3.53792 4.96781 4.57563 4.12173C6.37837 2.65262 8.66587 1.98344 11.8547 1.98344C14.7179 1.97575 16.7857 2.50647 18.6339 3.71407C19.9064 4.54477 21.0502 5.94465 21.6259 7.39069C21.8985 8.06756 21.9213 7.90603 21.6637 7.13687C20.6336 4.06019 17.8765 2.02959 13.9908 1.49117C13.0742 1.36041 10.7564 1.33734 9.88537 1.45271Z" fill="#FE7A7C"/>
<path d="M1.55339 9.52898C1.93969 9.68282 3.99239 10.0597 5.28005 10.2059C7.48424 10.4597 9.71872 10.5443 13.0667 10.4981C16.1722 10.452 16.9069 10.4058 19.0884 10.1289C20.3155 9.9751 22.0349 9.65205 22.3303 9.5136C22.4818 9.44437 22.4818 9.44437 22.3076 9.48283C21.9061 9.56744 19.7247 9.82896 18.7854 9.89818C15.589 10.1597 9.01429 10.1982 5.98448 9.98279C4.24235 9.85973 2.43961 9.65974 1.8185 9.5136C1.4322 9.42899 1.31101 9.43668 1.55339 9.52898Z" fill="#FE7A7C"/>
<path d="M0.189975 10.3366C0.379338 10.3981 0.909554 10.5366 1.36402 10.6366C6.21171 11.7134 15.6723 11.798 21.4365 10.8212C22.3909 10.6597 23.9967 10.2905 23.9436 10.2366C23.9285 10.2212 23.527 10.2751 23.0574 10.3597C21.0426 10.7212 19.1187 10.875 14.9451 10.9981C12.3925 11.0673 11.0367 11.0673 8.58254 10.9981C4.34838 10.875 2.93195 10.752 0.0384847 10.252C-0.0675584 10.2289 0.000612185 10.2674 0.189975 10.3366Z" fill="#FE7A7C"/>
<path d="M11.2412 11.8596C11.0518 12.0057 10.764 12.2826 10.6049 12.4826L10.3171 12.8364L9.98382 12.4518C9.52178 11.9134 9.01428 11.675 8.34015 11.6827C7.74177 11.6827 7.1358 11.875 7.09793 12.0749C7.08278 12.1595 7.30244 12.3903 7.74177 12.7441C9.01428 13.7671 9.34756 14.4747 9.36271 16.1592C9.37029 16.9361 9.37029 16.9438 9.46875 16.5823C9.91565 14.9209 9.46118 13.5056 8.12807 12.4441C7.71904 12.1134 7.75691 12.0596 8.4159 12.0596C8.94611 12.0596 9.37786 12.2672 9.84748 12.7518C10.052 12.9672 10.2565 13.1364 10.302 13.1364C10.3474 13.1364 10.4459 13.0287 10.5216 12.8979C10.5974 12.7672 10.8852 12.4211 11.1503 12.1288C11.423 11.8365 11.6351 11.5981 11.6199 11.5981C11.6048 11.5981 11.4306 11.7211 11.2412 11.8596Z" fill="#FE7A7C"/>
<path d="M16.6873 11.7134C15.9298 11.9211 15.2481 12.4211 14.9678 12.9672L14.8391 13.221L14.3695 12.621C13.7408 11.8134 13.6196 11.675 13.5666 11.675C13.5438 11.675 13.4529 11.8134 13.362 11.9903C13.1954 12.3288 13.1424 12.8826 13.2484 13.2287C13.3015 13.421 13.2939 13.444 13.1272 13.444C12.8091 13.444 12.0441 13.8902 11.6881 14.2747C11.1351 14.8747 11.0973 15.0516 11.5972 14.6286C12.2562 14.0901 12.847 13.8286 13.4302 13.8286C13.9832 13.8286 14.0968 13.7056 13.8317 13.3825C13.506 12.9595 13.3545 12.5903 13.4075 12.3211C13.4302 12.1826 13.4832 12.0442 13.5211 12.0211C13.5514 11.998 13.7105 12.2134 13.8695 12.498C14.021 12.7903 14.2483 13.1671 14.3695 13.3441C14.4831 13.521 14.5815 13.6902 14.5815 13.7286C14.5815 13.7671 14.3846 13.9748 14.1346 14.1901C13.3772 14.8747 12.6122 16.0438 12.3925 16.8822L12.3092 17.1976L11.8699 17.2284C10.7791 17.2899 8.46134 17.0361 8.33257 16.8361C8.31742 16.7976 8.50679 16.6976 8.77189 16.613C9.19607 16.4669 9.21879 16.4515 8.97641 16.4438C8.62798 16.4438 8.18108 16.5746 8.06746 16.713C7.83265 17.0053 8.20381 17.2668 9.23394 17.5283C10.0368 17.736 12.0289 17.8129 13.0136 17.6745C13.9301 17.5514 14.8012 17.3207 14.9754 17.1591C15.2708 16.8899 15.0436 16.6053 14.4301 16.49C14.1725 16.4438 14.1725 16.4438 14.5285 16.6361C14.7255 16.7438 14.8694 16.8668 14.8467 16.9053C14.8239 16.9361 14.6421 17.0053 14.4301 17.0514C13.968 17.1514 12.3849 17.2514 12.3849 17.1822C12.3849 17.0899 12.7031 16.49 12.9379 16.1438C13.2939 15.6208 14.0892 14.7901 14.6649 14.3594C15.2254 13.9363 15.2784 13.8132 15.036 13.4979L14.877 13.2979L15.2784 12.9749C15.8162 12.5364 16.5964 12.1749 17.422 11.9749C18.3385 11.7519 18.3764 11.7365 18.1037 11.675C17.7477 11.5827 17.0736 11.6057 16.6873 11.7134Z" fill="#FE7A7C"/>
</svg>
