<svg width="57" height="56" viewBox="0 0 57 56" fill="none" xmlns="http://www.w3.org/2000/svg">
<path d="M27.2584 38.1883C26.976 37.6277 26.9622 37.0745 26.8804 36.31C26.8754 36.2696 26.8528 36.2477 26.8124 36.2442C25.4838 36.133 24.2847 35.6966 23.2151 34.935C22.8435 34.6695 22.3922 34.248 21.9675 33.921C21.1429 33.2839 20.3232 32.6256 19.5084 31.946C18.1546 30.8163 16.9315 29.2735 16.0576 27.6171C15.3982 26.3653 14.9194 25.2844 14.5382 23.9083C14.0922 22.2994 13.8378 21.297 13.7748 20.9013C13.6445 20.0901 13.5107 19.3536 13.3734 18.6918C13.3719 18.6843 13.3685 18.6774 13.3635 18.6716C13.3585 18.6659 13.3521 18.6616 13.3449 18.6591C13.3377 18.6566 13.3299 18.6561 13.3225 18.6575C13.315 18.659 13.308 18.6624 13.3023 18.6673C13.1933 18.7586 13.0697 18.8107 12.9317 18.8234C10.8924 19.0152 9.39843 18.2784 8.4499 16.6128C7.7923 15.4576 7.63976 14.1731 7.99227 12.7596C8.05739 12.4984 8.20781 12.0991 8.44353 11.5619C8.90293 10.5164 9.56761 9.47544 10.4376 8.43914C13.3228 5.00178 16.8476 2.61524 21.0119 1.27951C23.0866 0.613418 25.2127 0.356819 27.3901 0.509716C29.21 0.637839 30.952 0.91638 32.6162 1.34534C35.3046 2.03763 37.9283 3.24807 39.5762 5.49374C40.5923 6.87725 40.8025 8.65469 39.9637 10.173C39.5949 10.8405 39.0927 11.4178 38.4571 11.9048C38.4435 11.9155 38.4331 11.9296 38.427 11.9456C38.4208 11.9617 38.4191 11.9792 38.422 11.9961C38.7682 13.8797 39.0623 15.1847 39.1483 16.7041C39.281 19.0496 39.3904 21.394 39.0134 23.7405C38.4231 27.4239 36.4471 30.9469 33.4253 33.2011C33.0356 33.4909 32.7043 34.0356 32.4091 34.3446C31.8612 34.919 30.8207 35.468 30.0732 35.7154C29.5607 35.8846 29.0376 36.0272 28.5039 36.1433C28.4842 36.1475 28.4665 36.1584 28.4539 36.1743C28.4414 36.1902 28.4346 36.21 28.4349 36.2304C28.449 36.9311 28.3184 37.5816 28.0431 38.1819C28.0204 38.2322 28.0363 38.2534 28.0908 38.2456C28.9328 38.1214 29.9267 38.9103 30.5574 39.4051C30.8865 39.6642 31.7551 39.0303 32.0747 38.7765C33.9041 37.3187 35.3089 35.4 35.9672 33.1363C35.9757 33.1059 35.9958 33.0907 36.0277 33.0907H37.477C37.5429 33.0907 37.5783 33.1232 37.5832 33.1883C37.8607 36.9322 38.0709 40.6941 38.2139 44.4741C38.2141 44.4779 38.2134 44.4818 38.212 44.4854C38.2107 44.489 38.2086 44.4923 38.2059 44.495C38.2032 44.4978 38.2 44.5 38.1965 44.5015C38.1929 44.503 38.1891 44.5038 38.1852 44.5038H17.5176C17.501 44.5038 17.4847 44.5005 17.4694 44.494C17.4542 44.4876 17.4404 44.4781 17.4289 44.4662C17.4174 44.4543 17.4085 44.4403 17.4025 44.4248C17.3966 44.4094 17.3938 44.3929 17.3944 44.3764L17.7522 33.3158C17.7536 33.2804 17.7717 33.2634 17.8064 33.2648L18.6059 33.2903C18.6209 33.2909 18.6353 33.2957 18.6476 33.3039C18.6598 33.3122 18.6693 33.3237 18.6749 33.337C19.7059 35.7387 21.5608 38.1448 23.9138 39.3616C24.1396 39.4777 24.3693 39.5442 24.6029 39.5612C24.6899 39.5668 24.7667 39.5421 24.8333 39.4869C25.5882 38.8551 26.1839 38.4962 27.2329 38.2424C27.2648 38.2354 27.2733 38.2173 27.2584 38.1883ZM27.2318 10.9057C28.0176 11.0727 28.6978 11.187 29.2726 11.2486C30.4215 11.3711 31.5395 11.3307 32.6268 11.1276C33.9296 10.8844 34.9553 10.3419 35.8026 9.38094C36.7476 8.30748 36.9291 6.65109 36.1094 5.45552C35.6508 4.7866 35.0381 4.26526 34.2715 3.89151C32.1925 2.87857 29.9182 2.35829 27.5812 2.35723C26.0961 2.35652 24.8273 2.44854 23.7747 2.63329C21.358 3.05659 19.1145 3.93221 17.044 5.26015C14.8599 6.66171 12.9593 8.29793 11.3741 10.3684C10.9292 10.9503 10.5501 11.6054 10.2337 12.2924C9.89818 13.0229 9.76333 13.7729 9.82916 14.5423C9.92685 15.6773 10.6276 16.8496 11.7149 17.183C13.045 17.5914 14.3439 17.356 15.6117 16.4769C15.9911 16.2135 16.3599 15.941 16.718 15.6593C17.0206 15.4214 17.3254 15.3078 17.697 15.3726C20.7603 15.9077 23.7471 14.9298 25.8048 12.6013C26.2324 12.1172 26.6387 11.5806 27.0237 10.9917C27.0456 10.958 27.0773 10.9317 27.1144 10.9163C27.1516 10.901 27.1925 10.8973 27.2318 10.9057ZM37.3316 13.7385C37.3309 13.7348 37.3296 13.7311 37.3275 13.7279C37.3254 13.7247 37.3227 13.722 37.3195 13.7199C37.3163 13.7178 37.3127 13.7164 37.3089 13.7158C37.3052 13.7151 37.3013 13.7153 37.2976 13.7162C36.3455 13.9385 35.1924 14.2276 33.8383 14.5837C31.9398 15.0827 29.6973 15.5903 28.3074 16.0023C25.3493 16.8793 23.0601 17.7415 19.879 18.953C18.4063 19.5136 17.0047 19.9532 15.463 20.4681C15.4157 20.4838 15.3755 20.5158 15.3495 20.5585C15.3235 20.6013 15.3133 20.652 15.3207 20.7017L15.6201 22.7255C15.6286 22.7786 15.6587 22.7984 15.7104 22.7849C20.7829 21.5327 25.9312 20.2186 31.1552 18.8425C34.9493 17.843 37.1525 17.2647 37.7648 17.1076C37.808 17.097 37.8264 17.0697 37.82 17.0258L37.3316 13.7385ZM16.2838 24.4604C16.4728 24.997 16.6419 25.4168 16.7913 25.7197C17.8552 27.8868 19.4022 29.8957 21.426 31.412C23.2565 32.7838 25.2948 33.4835 27.5408 33.5111C28.6929 33.526 29.6793 33.3041 30.6954 32.8316C34.7461 30.948 37.1181 27.0459 37.665 22.6289C37.808 21.4772 37.8802 20.1945 37.8816 18.7809C37.8816 18.7562 37.8695 18.747 37.8455 18.7533C35.9357 19.2984 34.0595 19.818 32.2169 20.312C32.0428 20.3588 29.0652 21.1116 23.2841 22.5705C21.1337 23.1134 18.9832 23.6574 16.8327 24.2024C16.6444 24.2506 16.4752 24.3058 16.3252 24.3681C16.282 24.3865 16.2682 24.4173 16.2838 24.4604ZM28.3221 42.3273C28.5125 42.2539 28.6859 42.1422 28.8325 41.9988C28.9792 41.8553 29.0962 41.6828 29.1768 41.4911C29.2575 41.2995 29.3002 41.0924 29.3026 40.8818C29.305 40.6711 29.267 40.461 29.1907 40.2634C29.1145 40.0658 29.0015 39.8845 28.8582 39.7301C28.715 39.5756 28.5442 39.451 28.3557 39.3632C28.1672 39.2754 27.9647 39.2262 27.7597 39.2184C27.5547 39.2106 27.3512 39.2444 27.1609 39.3179C26.9706 39.3913 26.7971 39.5029 26.6505 39.6464C26.5038 39.7899 26.3868 39.9624 26.3062 40.154C26.2255 40.3457 26.1828 40.5527 26.1804 40.7634C26.178 40.9741 26.216 41.1842 26.2923 41.3818C26.3685 41.5794 26.4815 41.7606 26.6248 41.9151C26.7681 42.0695 26.9388 42.1942 27.1273 42.282C27.3158 42.3698 27.5183 42.419 27.7233 42.4268C27.9283 42.4345 28.1318 42.4007 28.3221 42.3273Z" fill="#393939"/>
<path d="M27.2317 10.9057C27.1924 10.8973 27.1515 10.901 27.1143 10.9163C27.0772 10.9317 27.0455 10.958 27.0236 10.9917C26.6386 11.5806 26.2323 12.1172 25.8047 12.6013C23.747 14.9298 20.7602 15.9077 17.6969 15.3726C17.3253 15.3078 17.0205 15.4214 16.7179 15.6593C16.3598 15.941 15.991 16.2135 15.6116 16.4769C14.3438 17.356 13.0449 17.5914 11.7148 17.183C10.6275 16.8496 9.92675 15.6773 9.82906 14.5423C9.76323 13.7729 9.89808 13.0229 10.2336 12.2924C10.55 11.6054 10.9291 10.9503 11.374 10.3684C12.9592 8.29793 14.8598 6.66171 17.0439 5.26015C19.1144 3.93221 21.3579 3.05659 23.7746 2.63329C24.8272 2.44854 26.096 2.35652 27.5811 2.35723C29.9181 2.35829 32.1924 2.87857 34.2714 3.89151C35.038 4.26526 35.6507 4.78659 36.1094 5.45552C36.9291 6.65109 36.7475 8.30748 35.8025 9.38094C34.9552 10.3419 33.9295 10.8844 32.6267 11.1276C31.5394 11.3307 30.4214 11.3711 29.2725 11.2486C28.6977 11.187 28.0175 11.0727 27.2317 10.9057Z" fill="white"/>
<path d="M0.88346 39.0165C2.01426 36.2367 4.74518 34.299 7.61307 33.6131C9.08187 33.262 10.6505 33.0853 12.3189 33.0832C14.475 33.0811 15.8331 33.0776 16.393 33.0726C16.4027 33.0724 16.4123 33.0743 16.4213 33.078C16.4303 33.0817 16.4384 33.0872 16.4451 33.0942C16.4519 33.1011 16.4572 33.1094 16.4606 33.1185C16.4641 33.1275 16.4656 33.1372 16.4652 33.1469L15.8653 44.4369C15.8645 44.4551 15.8567 44.4724 15.8435 44.4852C15.8303 44.498 15.8127 44.5054 15.7941 44.5059C13.1131 44.5558 10.3737 44.5665 7.6789 44.2723C5.18087 44.0005 2.65735 43.6084 0.108356 43.0959C0.0748704 43.0891 0.0451762 43.07 0.025271 43.0425C0.00536574 43.0149 -0.00326733 42.9808 0.00111521 42.9472C0.175248 41.621 0.388667 40.2333 0.88346 39.0165Z" fill="#393939"/>
<path d="M39.4465 42.9653C39.2589 40.8523 39.0996 38.6636 38.9687 36.3992C38.906 35.2992 38.785 34.2119 38.6852 33.1469C38.6844 33.1387 38.6854 33.1305 38.6881 33.1227C38.6908 33.1149 38.695 33.1078 38.7006 33.1018C38.7063 33.0957 38.7131 33.091 38.7207 33.0878C38.7282 33.0846 38.7364 33.083 38.7446 33.0832C40.2226 33.0988 41.7389 33.1048 43.2933 33.1013C44.972 33.0981 46.5551 33.1883 48.2444 33.5589C49.7586 33.8909 51.1527 34.54 52.4268 35.5062C54.0825 36.762 55.2002 38.3861 55.7799 40.3788C55.9548 40.9811 56.1222 41.8285 56.2822 42.9207C56.2871 42.9561 56.274 42.983 56.2429 43.0014C56.1452 43.0566 55.9456 43.0364 55.8585 43.0523C54.6063 43.2895 53.5321 43.4902 52.636 43.6544C52.1327 43.7464 50.8695 43.9135 48.8465 44.1555C45.8459 44.5155 42.7752 44.5675 39.7098 44.4921C39.6641 44.4911 39.6205 44.4726 39.5878 44.4405C39.5551 44.4084 39.5357 44.365 39.5335 44.3191C39.5151 43.8689 39.4861 43.4176 39.4465 42.9653Z" fill="#393939"/>
<path d="M12.7776 52.5331C12.6123 52.5331 12.4843 52.4878 12.3936 52.3971C12.3029 52.3011 12.2576 52.1704 12.2576 52.0051V47.3891C12.2576 47.2184 12.3003 47.0904 12.3856 47.0051C12.4763 46.9144 12.6043 46.8691 12.7696 46.8691C12.9349 46.8691 13.0603 46.9144 13.1456 47.0051C13.2363 47.0904 13.2816 47.2184 13.2816 47.3891V51.6611H15.6016C15.7456 51.6611 15.8549 51.6984 15.9296 51.7731C16.0096 51.8478 16.0496 51.9544 16.0496 52.0931C16.0496 52.2318 16.0096 52.3411 15.9296 52.4211C15.8549 52.4958 15.7456 52.5331 15.6016 52.5331H12.7776ZM18.5427 52.6131C18.1001 52.6131 17.7187 52.5304 17.3987 52.3651C17.0787 52.1998 16.8307 51.9651 16.6547 51.6611C16.4841 51.3571 16.3987 50.9971 16.3987 50.5811C16.3987 50.1758 16.4814 49.8211 16.6467 49.5171C16.8174 49.2131 17.0494 48.9758 17.3427 48.8051C17.6414 48.6291 17.9801 48.5411 18.3587 48.5411C18.6361 48.5411 18.8841 48.5864 19.1027 48.6771C19.3267 48.7678 19.5161 48.8984 19.6707 49.0691C19.8307 49.2398 19.9507 49.4478 20.0307 49.6931C20.1161 49.9331 20.1587 50.2051 20.1587 50.5091C20.1587 50.6051 20.1241 50.6798 20.0547 50.7331C19.9907 50.7811 19.8974 50.8051 19.7747 50.8051H17.2067V50.2291H19.4547L19.3267 50.3491C19.3267 50.1038 19.2894 49.8984 19.2147 49.7331C19.1454 49.5678 19.0414 49.4424 18.9027 49.3571C18.7694 49.2664 18.6014 49.2211 18.3987 49.2211C18.1747 49.2211 17.9827 49.2744 17.8227 49.3811C17.6681 49.4824 17.5481 49.6291 17.4627 49.8211C17.3827 50.0078 17.3427 50.2318 17.3427 50.4931V50.5491C17.3427 50.9864 17.4441 51.3144 17.6467 51.5331C17.8547 51.7464 18.1587 51.8531 18.5587 51.8531C18.6974 51.8531 18.8521 51.8371 19.0227 51.8051C19.1987 51.7678 19.3641 51.7064 19.5187 51.6211C19.6307 51.5571 19.7294 51.5304 19.8147 51.5411C19.9001 51.5464 19.9667 51.5758 20.0147 51.6291C20.0681 51.6824 20.1001 51.7491 20.1107 51.8291C20.1214 51.9038 20.1054 51.9811 20.0627 52.0611C20.0254 52.1411 19.9587 52.2104 19.8627 52.2691C19.6761 52.3864 19.4601 52.4744 19.2147 52.5331C18.9747 52.5864 18.7507 52.6131 18.5427 52.6131ZM23.7465 52.5971C23.5812 52.5971 23.4505 52.5518 23.3545 52.4611C23.2639 52.3651 23.2185 52.2291 23.2185 52.0531V47.4371C23.2185 47.2611 23.2639 47.1278 23.3545 47.0371C23.4505 46.9411 23.5865 46.8931 23.7625 46.8931H26.5545C26.6932 46.8931 26.7972 46.9278 26.8665 46.9971C26.9359 47.0664 26.9705 47.1651 26.9705 47.2931C26.9705 47.4264 26.9359 47.5304 26.8665 47.6051C26.7972 47.6744 26.6932 47.7091 26.5545 47.7091H24.2425V49.3011H26.3865C26.5199 49.3011 26.6212 49.3358 26.6905 49.4051C26.7652 49.4744 26.8025 49.5731 26.8025 49.7011C26.8025 49.8344 26.7652 49.9384 26.6905 50.0131C26.6212 50.0824 26.5199 50.1171 26.3865 50.1171H24.2425V52.0531C24.2425 52.4158 24.0772 52.5971 23.7465 52.5971ZM28.0486 52.5971C27.8833 52.5971 27.7553 52.5544 27.6646 52.4691C27.5793 52.3784 27.5366 52.2504 27.5366 52.0851V49.0611C27.5366 48.8958 27.5793 48.7704 27.6646 48.6851C27.7499 48.5998 27.8699 48.5571 28.0246 48.5571C28.1793 48.5571 28.2993 48.5998 28.3846 48.6851C28.4699 48.7704 28.5126 48.8958 28.5126 49.0611V49.5651H28.4326C28.5073 49.2451 28.6539 49.0024 28.8726 48.8371C29.0913 48.6718 29.3819 48.5731 29.7446 48.5411C29.8566 48.5304 29.9446 48.5598 30.0086 48.6291C30.0779 48.6931 30.1179 48.7944 30.1286 48.9331C30.1393 49.0664 30.1073 49.1758 30.0326 49.2611C29.9633 49.3411 29.8566 49.3891 29.7126 49.4051L29.5366 49.4211C29.2113 49.4531 28.9659 49.5544 28.8006 49.7251C28.6353 49.8904 28.5526 50.1251 28.5526 50.4291V52.0851C28.5526 52.2504 28.5099 52.3784 28.4246 52.4691C28.3393 52.5544 28.2139 52.5971 28.0486 52.5971ZM32.5349 52.6131C32.0922 52.6131 31.7109 52.5304 31.3909 52.3651C31.0709 52.1998 30.8229 51.9651 30.6469 51.6611C30.4762 51.3571 30.3909 50.9971 30.3909 50.5811C30.3909 50.1758 30.4736 49.8211 30.6389 49.5171C30.8096 49.2131 31.0416 48.9758 31.3349 48.8051C31.6336 48.6291 31.9722 48.5411 32.3509 48.5411C32.6282 48.5411 32.8762 48.5864 33.0949 48.6771C33.3189 48.7678 33.5082 48.8984 33.6629 49.0691C33.8229 49.2398 33.9429 49.4478 34.0229 49.6931C34.1082 49.9331 34.1509 50.2051 34.1509 50.5091C34.1509 50.6051 34.1162 50.6798 34.0469 50.7331C33.9829 50.7811 33.8896 50.8051 33.7669 50.8051H31.1989V50.2291H33.4469L33.3189 50.3491C33.3189 50.1038 33.2816 49.8984 33.2069 49.7331C33.1376 49.5678 33.0336 49.4424 32.8949 49.3571C32.7616 49.2664 32.5936 49.2211 32.3909 49.2211C32.1669 49.2211 31.9749 49.2744 31.8149 49.3811C31.6602 49.4824 31.5402 49.6291 31.4549 49.8211C31.3749 50.0078 31.3349 50.2318 31.3349 50.4931V50.5491C31.3349 50.9864 31.4362 51.3144 31.6389 51.5331C31.8469 51.7464 32.1509 51.8531 32.5509 51.8531C32.6896 51.8531 32.8442 51.8371 33.0149 51.8051C33.1909 51.7678 33.3562 51.7064 33.5109 51.6211C33.6229 51.5571 33.7216 51.5304 33.8069 51.5411C33.8922 51.5464 33.9589 51.5758 34.0069 51.6291C34.0602 51.6824 34.0922 51.7491 34.1029 51.8291C34.1136 51.9038 34.0976 51.9811 34.0549 52.0611C34.0176 52.1411 33.9509 52.2104 33.8549 52.2691C33.6682 52.3864 33.4522 52.4744 33.2069 52.5331C32.9669 52.5864 32.7429 52.6131 32.5349 52.6131ZM36.4469 52.6131C36.1055 52.6131 35.8042 52.5304 35.5429 52.3651C35.2869 52.1998 35.0869 51.9651 34.9429 51.6611C34.7989 51.3518 34.7269 50.9891 34.7269 50.5731C34.7269 50.1518 34.7989 49.7918 34.9429 49.4931C35.0869 49.1891 35.2869 48.9544 35.5429 48.7891C35.8042 48.6238 36.1055 48.5411 36.4469 48.5411C36.7722 48.5411 37.0549 48.6211 37.2949 48.7811C37.5402 48.9411 37.7055 49.1518 37.7909 49.4131H37.7029V47.3331C37.7029 47.1678 37.7455 47.0424 37.8309 46.9571C37.9162 46.8718 38.0389 46.8291 38.1989 46.8291C38.3589 46.8291 38.4815 46.8718 38.5669 46.9571C38.6575 47.0424 38.7029 47.1678 38.7029 47.3331V52.0851C38.7029 52.2504 38.6602 52.3784 38.5749 52.4691C38.4895 52.5544 38.3669 52.5971 38.2069 52.5971C38.0469 52.5971 37.9242 52.5544 37.8389 52.4691C37.7535 52.3784 37.7109 52.2504 37.7109 52.0851V51.4611L37.7989 51.7011C37.7189 51.9784 37.5562 52.1998 37.3109 52.3651C37.0655 52.5304 36.7775 52.6131 36.4469 52.6131ZM36.7269 51.8531C36.9242 51.8531 37.0975 51.8051 37.2469 51.7091C37.3962 51.6131 37.5109 51.4718 37.5909 51.2851C37.6762 51.0931 37.7189 50.8558 37.7189 50.5731C37.7189 50.1464 37.6282 49.8291 37.4469 49.6211C37.2655 49.4078 37.0255 49.3011 36.7269 49.3011C36.5295 49.3011 36.3562 49.3491 36.2069 49.4451C36.0575 49.5358 35.9402 49.6771 35.8549 49.8691C35.7749 50.0558 35.7349 50.2904 35.7349 50.5731C35.7349 50.9944 35.8255 51.3144 36.0069 51.5331C36.1882 51.7464 36.4282 51.8531 36.7269 51.8531ZM41.5237 52.6131C41.1184 52.6131 40.7664 52.5304 40.4677 52.3651C40.1691 52.1998 39.9371 51.9651 39.7717 51.6611C39.6064 51.3518 39.5237 50.9891 39.5237 50.5731C39.5237 50.2584 39.5691 49.9784 39.6597 49.7331C39.7557 49.4824 39.8917 49.2691 40.0677 49.0931C40.2437 48.9118 40.4544 48.7758 40.6997 48.6851C40.9451 48.5891 41.2197 48.5411 41.5237 48.5411C41.9291 48.5411 42.2811 48.6238 42.5797 48.7891C42.8784 48.9544 43.1104 49.1891 43.2757 49.4931C43.4411 49.7971 43.5237 50.1571 43.5237 50.5731C43.5237 50.8878 43.4757 51.1704 43.3797 51.4211C43.2891 51.6718 43.1557 51.8878 42.9797 52.0691C42.8037 52.2451 42.5931 52.3811 42.3477 52.4771C42.1024 52.5678 41.8277 52.6131 41.5237 52.6131ZM41.5237 51.8531C41.7211 51.8531 41.8944 51.8051 42.0437 51.7091C42.1931 51.6131 42.3077 51.4718 42.3877 51.2851C42.4731 51.0931 42.5157 50.8558 42.5157 50.5731C42.5157 50.1464 42.4251 49.8291 42.2437 49.6211C42.0624 49.4078 41.8224 49.3011 41.5237 49.3011C41.3264 49.3011 41.1531 49.3491 41.0037 49.4451C40.8544 49.5358 40.7371 49.6771 40.6517 49.8691C40.5717 50.0558 40.5317 50.2904 40.5317 50.5731C40.5317 50.9944 40.6224 51.3144 40.8037 51.5331C40.9851 51.7464 41.2251 51.8531 41.5237 51.8531Z" fill="#393939"/>
</svg>
