<svg width="53" height="53" viewBox="0 0 53 53" fill="none" xmlns="http://www.w3.org/2000/svg">
<g clip-path="url(#clip0_3863_8663)">
<rect x="60.1406" y="-30.5908" width="16" height="122.657" transform="rotate(45 60.1406 -30.5908)" fill="#DE6C53"/>
<path d="M8.52768 36.3066C8.41313 36.4211 8.29434 36.4805 8.1713 36.4848C8.04826 36.4805 7.92947 36.4211 7.81492 36.3066L4.04109 32.5327C3.92654 32.4182 3.86926 32.3015 3.86926 32.1827C3.86926 32.0554 3.92654 31.9345 4.04109 31.82L5.26933 30.5917C6.00755 29.8535 6.76911 29.478 7.554 29.4653C8.33888 29.4441 9.09407 29.7962 9.81957 30.5217C10.1802 30.8823 10.4496 31.2536 10.6278 31.6354C10.806 32.0173 10.8908 32.4033 10.8823 32.7937C10.8739 33.1755 10.7784 33.5595 10.596 33.9455C10.4093 34.3274 10.1293 34.705 9.75593 35.0783L8.52768 36.3066ZM8.27949 35.4474L9.16408 34.5628C9.44409 34.2828 9.65198 34.0071 9.78775 33.7355C9.92351 33.4555 9.99139 33.1755 9.99139 32.8955C9.99139 32.6155 9.91927 32.3355 9.77502 32.0554C9.63077 31.7754 9.41652 31.4933 9.13226 31.209C8.56799 30.6448 8.00584 30.3626 7.44581 30.3626C6.89002 30.3584 6.33636 30.632 5.78482 31.1836L4.90022 32.0682L8.27949 35.4474ZM14.3951 30.5537C14.0557 30.8931 13.6993 31.1222 13.326 31.241C12.9526 31.3513 12.5793 31.3556 12.2059 31.2537C11.8326 31.1434 11.4804 30.9228 11.1495 30.5919C10.827 30.2694 10.6107 29.9215 10.5004 29.5482C10.3901 29.1748 10.3816 28.8057 10.4749 28.4409C10.5682 28.076 10.7613 27.7472 11.054 27.4544C11.2704 27.2381 11.4995 27.0811 11.7413 26.9835C11.9789 26.8817 12.225 26.8393 12.4796 26.8562C12.7341 26.8647 12.9865 26.9347 13.2369 27.0662C13.4914 27.1935 13.7375 27.376 13.9751 27.6135C14.0472 27.6857 14.0811 27.762 14.0769 27.8426C14.0684 27.919 14.0218 27.9996 13.9369 28.0845L11.7986 30.2228L11.404 29.8282L13.3641 27.8681L13.3451 28.0654C13.1329 27.8533 12.9208 27.7048 12.7087 27.6199C12.5008 27.5308 12.2971 27.5096 12.0977 27.5563C11.8983 27.5945 11.7095 27.7026 11.5313 27.8808C11.3319 28.0802 11.2089 28.2966 11.1622 28.53C11.1198 28.7591 11.1452 28.9924 11.2386 29.23C11.3319 29.4676 11.4889 29.6967 11.7095 29.9173L11.7477 29.9555C12.121 30.3288 12.4902 30.524 12.855 30.541C13.2199 30.5495 13.5699 30.3861 13.9051 30.0509C14.0324 29.9237 14.149 29.773 14.2551 29.5991C14.3654 29.4209 14.4439 29.2279 14.4906 29.02C14.5203 28.9054 14.5648 28.8227 14.6242 28.7718C14.6878 28.7166 14.7536 28.6891 14.8215 28.6891C14.8936 28.6848 14.9594 28.7039 15.0188 28.7463C15.0782 28.7888 15.1227 28.8503 15.1524 28.9309C15.1779 29.0073 15.18 29.0985 15.1588 29.2045C15.1121 29.4464 15.0188 29.6882 14.8788 29.93C14.7345 30.1676 14.5733 30.3755 14.3951 30.5537ZM17.4441 27.5047C17.2575 27.6913 17.0432 27.8632 16.8014 28.0201C16.5638 28.1729 16.3114 28.2811 16.0441 28.3447C15.9507 28.3617 15.8701 28.3574 15.8022 28.332C15.7344 28.3065 15.6792 28.2683 15.6368 28.2174C15.5943 28.158 15.571 28.0965 15.5668 28.0329C15.5625 27.9607 15.5795 27.8971 15.6177 27.842C15.6601 27.7826 15.7237 27.7401 15.8086 27.7147C16.0674 27.6425 16.2923 27.5492 16.4832 27.4347C16.6699 27.3159 16.8374 27.1822 16.9859 27.0337C17.2108 26.8089 17.3402 26.5989 17.3741 26.4037C17.4081 26.2085 17.3572 26.0431 17.2214 25.9073C17.1111 25.797 16.9881 25.7503 16.8523 25.7673C16.7123 25.78 16.5489 25.8458 16.3623 25.9646L15.6368 26.4482C15.3186 26.6561 15.0216 26.758 14.7458 26.7537C14.47 26.7495 14.224 26.6392 14.0076 26.4228C13.8124 26.2276 13.6958 26.0049 13.6576 25.7546C13.6194 25.5043 13.6576 25.2455 13.7721 24.9782C13.8824 24.7066 14.0628 24.4457 14.3131 24.1954C14.4997 24.0087 14.6992 23.856 14.9113 23.7372C15.1234 23.6184 15.3462 23.5357 15.5795 23.489C15.6644 23.4635 15.7407 23.4678 15.8086 23.5017C15.8722 23.5314 15.921 23.576 15.955 23.6354C15.9932 23.6905 16.0144 23.7542 16.0186 23.8263C16.0186 23.8942 15.9974 23.9578 15.955 24.0172C15.9125 24.0681 15.8468 24.1084 15.7577 24.1381C15.5498 24.1848 15.3652 24.2548 15.204 24.3481C15.047 24.4372 14.907 24.5433 14.784 24.6663C14.5591 24.8912 14.4319 25.1033 14.4022 25.3027C14.3725 25.4936 14.4276 25.6591 14.5676 25.7991C14.6737 25.9052 14.7946 25.9582 14.9304 25.9582C15.0661 25.9582 15.221 25.9009 15.3949 25.7864L16.1204 25.3027C16.4514 25.0821 16.7526 24.9676 17.0241 24.9591C17.2999 24.9463 17.5502 25.0524 17.7751 25.2773C18.0678 25.57 18.1824 25.9179 18.1187 26.321C18.0551 26.724 17.8302 27.1186 17.4441 27.5047ZM20.7311 24.2177C20.4765 24.4723 20.2177 24.642 19.9547 24.7268C19.6916 24.8117 19.4307 24.8096 19.1719 24.7205C18.9131 24.6314 18.6585 24.4617 18.4082 24.2114L16.9063 22.7095L16.5245 23.0913C16.4396 23.1762 16.3527 23.2207 16.2636 23.2249C16.1702 23.2249 16.0854 23.1868 16.009 23.1104C15.9284 23.0298 15.8902 22.9449 15.8945 22.8558C15.8987 22.7667 15.9433 22.6798 16.0281 22.5949L16.4099 22.2131L15.7545 21.5576C15.6484 21.4515 15.5954 21.3433 15.5954 21.233C15.5996 21.1185 15.6526 21.0103 15.7545 20.9085C15.8563 20.8066 15.9623 20.7557 16.0727 20.7557C16.183 20.7557 16.2912 20.8088 16.3972 20.9148L17.0527 21.5703L17.7973 20.8257C17.8821 20.7409 17.9691 20.6963 18.0582 20.6921C18.1473 20.6878 18.2322 20.726 18.3128 20.8066C18.3891 20.883 18.4273 20.9679 18.4273 21.0612C18.4231 21.1503 18.3785 21.2373 18.2937 21.3221L17.5491 22.0667L19.0001 23.5177C19.2249 23.7425 19.4413 23.8656 19.6492 23.8868C19.8613 23.9038 20.0756 23.8041 20.292 23.5877C20.3683 23.5113 20.4277 23.4392 20.4702 23.3713C20.5126 23.295 20.5508 23.2356 20.5847 23.1931C20.6314 23.1465 20.6865 23.1252 20.7502 23.1295C20.8096 23.1295 20.8838 23.174 20.9729 23.2631C21.0365 23.3268 21.0832 23.3989 21.1129 23.4795C21.1469 23.5559 21.1426 23.6322 21.1002 23.7086C21.0662 23.7765 21.0111 23.8613 20.9347 23.9632C20.8668 24.065 20.799 24.1498 20.7311 24.2177ZM22.7245 22.2243C22.5081 22.4407 22.2705 22.5934 22.0117 22.6825C21.7572 22.7674 21.509 22.7865 21.2671 22.7398C21.0253 22.6931 20.8132 22.5786 20.6307 22.3961C20.4016 22.167 20.2786 21.9294 20.2616 21.6834C20.2447 21.4288 20.3422 21.1403 20.5544 20.8179C20.7665 20.487 21.1017 20.0924 21.5599 19.6342L21.859 19.3351L22.2536 19.7296L21.9608 20.0224C21.6553 20.3279 21.4284 20.5845 21.2799 20.7924C21.1314 21.0003 21.055 21.1785 21.0508 21.327C21.0465 21.467 21.1059 21.5985 21.229 21.7216C21.3902 21.8828 21.5769 21.9591 21.789 21.9507C21.9969 21.9379 22.1984 21.834 22.3936 21.6388C22.5505 21.4819 22.6524 21.3079 22.699 21.117C22.7415 20.9218 22.733 20.7267 22.6736 20.5315C22.6184 20.3321 22.5081 20.1497 22.3426 19.9842L21.6108 19.2523C21.369 19.0105 21.1441 18.8875 20.9362 18.8832C20.7283 18.879 20.5077 18.9935 20.2744 19.2269C20.1386 19.3627 20.0134 19.5218 19.8989 19.7042C19.7886 19.8824 19.6952 20.0903 19.6189 20.3279C19.5807 20.4339 19.5298 20.506 19.4661 20.5442C19.4025 20.5824 19.3346 20.5951 19.2625 20.5824C19.1861 20.5654 19.1204 20.5336 19.0652 20.487C19.0101 20.4318 18.9697 20.366 18.9443 20.2897C18.9231 20.2091 18.9337 20.1221 18.9761 20.0287C19.0737 19.753 19.1946 19.5048 19.3389 19.2842C19.4831 19.0635 19.6358 18.8726 19.7971 18.7114C20.0813 18.4272 20.3592 18.2384 20.6307 18.145C20.9065 18.0474 21.1802 18.0453 21.4517 18.1387C21.7232 18.232 22.0032 18.4229 22.2917 18.7114L23.9273 20.3469C24.0291 20.4488 24.0843 20.5548 24.0927 20.6651C24.097 20.7712 24.0503 20.873 23.9527 20.9706C23.8594 21.064 23.7576 21.1106 23.6473 21.1106C23.5327 21.1064 23.4245 21.0533 23.3227 20.9515L22.909 20.5379L22.9663 20.4806C23.0894 20.6715 23.1615 20.8709 23.1827 21.0788C23.2039 21.2782 23.1763 21.4755 23.1 21.6706C23.0236 21.8658 22.8984 22.0504 22.7245 22.2243ZM26.5181 18.4307C26.1999 18.7489 25.8584 18.9589 25.4935 19.0607C25.1286 19.1541 24.7616 19.1435 24.3925 19.0289C24.0192 18.9101 23.667 18.6853 23.3361 18.3543C23.09 18.1083 22.9055 17.8516 22.7825 17.5843C22.6552 17.3128 22.5894 17.0434 22.5852 16.7761C22.5852 16.5045 22.6446 16.2373 22.7634 15.9742C22.8822 15.7027 23.0604 15.4481 23.2979 15.2105C23.4464 15.062 23.6246 14.9305 23.8325 14.816C24.0404 14.6929 24.2653 14.6123 24.5071 14.5741C24.5962 14.5529 24.6726 14.5614 24.7362 14.5996C24.7998 14.6293 24.8507 14.676 24.8889 14.7396C24.9314 14.799 24.9526 14.8669 24.9526 14.9432C24.9526 15.0111 24.9314 15.0748 24.8889 15.1342C24.8423 15.1893 24.7723 15.2296 24.6789 15.2551C24.505 15.2848 24.3501 15.3378 24.2143 15.4142C24.0743 15.4863 23.9555 15.5712 23.858 15.6687C23.7052 15.8215 23.5949 15.9827 23.527 16.1524C23.4592 16.3136 23.4316 16.4812 23.4443 16.6552C23.4528 16.8249 23.5037 16.9988 23.597 17.177C23.6946 17.3509 23.8304 17.5249 24.0043 17.6988C24.3522 18.0467 24.7065 18.2398 25.0671 18.278C25.4277 18.3077 25.7587 18.1719 26.0599 17.8707C26.1575 17.7731 26.2445 17.6564 26.3208 17.5207C26.3972 17.3849 26.4502 17.23 26.4799 17.0561C26.5054 16.9627 26.5478 16.8949 26.6072 16.8524C26.6666 16.81 26.7302 16.793 26.7981 16.8015C26.866 16.8015 26.9296 16.8227 26.989 16.8652C27.0484 16.8991 27.0951 16.95 27.129 17.0179C27.163 17.0858 27.1693 17.1643 27.1481 17.2534C27.11 17.4867 27.0315 17.7052 26.9127 17.9089C26.7981 18.1083 26.6666 18.2822 26.5181 18.4307ZM29.0884 15.8604C28.8721 16.0767 28.6345 16.2295 28.3757 16.3186C28.1211 16.4034 27.8729 16.4225 27.6311 16.3758C27.3893 16.3292 27.1771 16.2146 26.9947 16.0322C26.7656 15.8031 26.6426 15.5655 26.6256 15.3194C26.6086 15.0649 26.7062 14.7764 26.9183 14.4539C27.1305 14.123 27.4656 13.7284 27.9238 13.2702L28.2229 12.9711L28.6175 13.3657L28.3248 13.6584C28.0193 13.9639 27.7923 14.2206 27.6438 14.4285C27.4953 14.6364 27.419 14.8145 27.4147 14.963C27.4105 15.103 27.4699 15.2346 27.5929 15.3576C27.7541 15.5188 27.9408 15.5952 28.1529 15.5867C28.3608 15.574 28.5624 15.47 28.7575 15.2749C28.9145 15.1179 29.0163 14.9439 29.063 14.753C29.1054 14.5579 29.0969 14.3627 29.0375 14.1675C28.9824 13.9681 28.8721 13.7857 28.7066 13.6202L27.9748 12.8884C27.7329 12.6466 27.5081 12.5235 27.3002 12.5193C27.0923 12.515 26.8717 12.6296 26.6383 12.8629C26.5026 12.9987 26.3774 13.1578 26.2628 13.3402C26.1525 13.5184 26.0592 13.7263 25.9828 13.9639C25.9447 14.07 25.8937 14.1421 25.8301 14.1803C25.7665 14.2185 25.6986 14.2312 25.6265 14.2185C25.5501 14.2015 25.4843 14.1697 25.4292 14.123C25.374 14.0678 25.3337 14.0021 25.3083 13.9257C25.287 13.8451 25.2976 13.7581 25.3401 13.6648C25.4377 13.389 25.5586 13.1408 25.7028 12.9202C25.8471 12.6996 25.9998 12.5087 26.161 12.3474C26.4453 12.0632 26.7232 11.8744 26.9947 11.7811C27.2705 11.6835 27.5441 11.6814 27.8157 11.7747C28.0872 11.868 28.3672 12.0589 28.6557 12.3474L30.2912 13.983C30.3931 14.0848 30.4482 14.1909 30.4567 14.3012C30.4609 14.4072 30.4143 14.5091 30.3167 14.6067C30.2234 14.7 30.1215 14.7467 30.0112 14.7467C29.8967 14.7424 29.7885 14.6894 29.6867 14.5876L29.273 14.1739L29.3303 14.1166C29.4533 14.3075 29.5254 14.5069 29.5467 14.7148C29.5679 14.9142 29.5403 15.1115 29.4639 15.3067C29.3876 15.5018 29.2624 15.6864 29.0884 15.8604ZM32.6975 12.2513C32.426 12.5228 32.1226 12.6989 31.7875 12.7795C31.4523 12.8516 31.1065 12.824 30.7501 12.6968C30.3895 12.5652 30.0459 12.3361 29.7192 12.0095C29.384 11.6743 29.1549 11.3306 29.0319 10.9785C28.9088 10.6264 28.8834 10.2827 28.9555 9.94754C29.0319 9.60813 29.2058 9.30266 29.4773 9.03113C29.7489 8.7596 30.0501 8.59413 30.381 8.53474C30.712 8.46685 31.0238 8.5114 31.3165 8.66838L31.2465 8.73838L29.4646 6.95647C29.3586 6.85041 29.3055 6.74222 29.3055 6.63191C29.3055 6.5216 29.3564 6.41554 29.4583 6.31371C29.5601 6.21189 29.6661 6.16098 29.7765 6.16098C29.891 6.15674 30.0013 6.20765 30.1074 6.31371L34.0339 10.2403C34.1358 10.3421 34.1888 10.4503 34.193 10.5648C34.193 10.6751 34.1421 10.7812 34.0403 10.883C33.9385 10.9849 33.8324 11.0358 33.7221 11.0358C33.6076 11.0315 33.4994 10.9785 33.3975 10.8767L32.8375 10.3166L33.0475 10.3866C33.2087 10.6836 33.2597 11.0018 33.2003 11.3412C33.1409 11.6722 32.9733 11.9755 32.6975 12.2513ZM32.3666 11.5894C32.5405 11.4155 32.6508 11.2203 32.6975 11.004C32.7442 10.7876 32.7208 10.5606 32.6275 10.323C32.5384 10.0812 32.3729 9.83935 32.1311 9.59752C31.7662 9.23265 31.4099 9.03749 31.062 9.01203C30.7141 8.98658 30.4086 9.10537 30.1456 9.36842C29.9674 9.54661 29.8549 9.74389 29.8083 9.96026C29.7574 10.1724 29.7765 10.3994 29.8655 10.6412C29.9589 10.8788 30.1265 11.1185 30.3683 11.3603C30.7289 11.721 31.0853 11.9161 31.4374 11.9458C31.7896 11.9755 32.0993 11.8567 32.3666 11.5894ZM36.6229 8.32587C36.309 8.63983 35.9717 8.84559 35.6111 8.94317C35.2547 9.03651 34.8919 9.02591 34.5228 8.91135C34.1537 8.7968 33.8058 8.57619 33.4791 8.2495C33.2288 7.99919 33.0421 7.74039 32.9191 7.4731C32.7961 7.20581 32.7303 6.93641 32.7218 6.66488C32.7133 6.38486 32.7664 6.11545 32.8809 5.85665C32.9955 5.58937 33.1694 5.33905 33.4028 5.10571C33.7125 4.79599 34.0455 4.59447 34.4019 4.50113C34.7625 4.40355 35.1274 4.41203 35.4965 4.52659C35.8614 4.63689 36.2093 4.85751 36.5402 5.18844C36.7863 5.43451 36.9729 5.69331 37.1002 5.96484C37.2275 6.23637 37.2933 6.51002 37.2975 6.78579C37.306 7.05732 37.253 7.32673 37.1384 7.59401C37.0239 7.85282 36.852 8.09677 36.6229 8.32587ZM36.1265 7.82948C36.3005 7.65553 36.4108 7.46037 36.4575 7.244C36.5041 7.02762 36.4808 6.80064 36.3875 6.56305C36.2984 6.32122 36.1329 6.07939 35.8911 5.83756C35.5262 5.47269 35.1698 5.27753 34.8219 5.25208C34.474 5.22662 34.1686 5.34541 33.9055 5.60846C33.7273 5.78665 33.6149 5.98393 33.5682 6.20031C33.5173 6.41244 33.5364 6.63942 33.6255 6.88125C33.7188 7.11884 33.8864 7.35855 34.1283 7.60038C34.4889 7.961 34.8453 8.15616 35.1974 8.18586C35.5495 8.21556 35.8593 8.09677 36.1265 7.82948Z" fill="white"/>
</g>
<defs>
<clipPath id="clip0_3863_8663">
<rect width="53" height="53" fill="white"/>
</clipPath>
</defs>
</svg>
